<svg xmlns="http://www.w3.org/2000/svg" viewBox="0 0 64 64" fill="none">
  <rect width="64" height="64" rx="12" fill="#6366f1"/>
  <path d="M20 16v32M32 16v32M44 16v32" stroke="#fff" stroke-width="3" stroke-linecap="round" opacity="0.3"/>
  <circle cx="20" cy="24" r="4" fill="#a5b4fc"/>
  <circle cx="32" cy="20" r="4" fill="#818cf8"/>
  <circle cx="44" cy="28" r="4" fill="#a5b4fc"/>
  <path d="M20 24 C26 24, 26 20, 32 20" stroke="#c7d2fe" stroke-width="2" fill="none"/>
  <path d="M32 20 C38 20, 38 28, 44 28" stroke="#c7d2fe" stroke-width="2" fill="none"/>
  <circle cx="20" cy="40" r="4" fill="#34d399"/>
  <circle cx="32" cy="36" r="4" fill="#34d399"/>
  <circle cx="44" cy="44" r="4" fill="#34d399"/>
  <path d="M20 40 C26 40, 26 36, 32 36" stroke="#6ee7b7" stroke-width="2" fill="none"/>
  <path d="M32 36 C38 36, 38 44, 44 44" stroke="#6ee7b7" stroke-width="2" fill="none"/>
</svg>
